<?xml version="1.0" encoding="UTF-8" standalone="no"?>
<!DOCTYPE svg PUBLIC "-//W3C//DTD SVG 1.0//EN" "http://www.w3.org/TR/2001/PR-SVG-20010719/DTD/svg10.dtd">
<svg width="236cm" height="21cm" viewBox="-1101 38 4713 403" xmlns="http://www.w3.org/2000/svg" xmlns:xlink="http://www.w3.org/1999/xlink">
  <g>
    <rect style="fill: #ffffff" x="720" y="40" width="151.063" height="40"/>
    <rect style="fill: none; fill-opacity:0; stroke-width: 2; stroke: #0000ff" x="720" y="40" width="151.063" height="40"/>
    <line style="fill: none; fill-opacity:0; stroke-width: 2; stroke: #0000ff" x1="735.106" y1="40" x2="735.106" y2="80"/>
    <line style="fill: none; fill-opacity:0; stroke-width: 2; stroke: #0000ff" x1="855.956" y1="40" x2="855.956" y2="80"/>
    <text style="fill: #000000;text-anchor:middle;font-size:12.7998;font-family:sanserif;font-style:normal;font-weight:normal" x="795.531" y="64">
      <tspan x="795.531" y="64">Ikarus Framework</tspan>
    </text>
  </g>
  <g>
    <rect style="fill: #ffffff" x="-500" y="120" width="126.4" height="38"/>
    <rect style="fill: none; fill-opacity:0; stroke-width: 2; stroke: #000000" x="-500" y="120" width="126.4" height="38"/>
    <text style="fill: #000000;text-anchor:middle;font-size:12.7998;font-family:sanserif;font-style:normal;font-weight:normal" x="-436.8" y="142.9">
      <tspan x="-436.8" y="142.9">Cronjob Support</tspan>
    </text>
  </g>
  <g>
    <rect style="fill: #ffffff" x="40" y="120" width="128.6" height="38"/>
    <rect style="fill: none; fill-opacity:0; stroke-width: 2; stroke: #000000" x="40" y="120" width="128.6" height="38"/>
    <text style="fill: #000000;text-anchor:middle;font-size:12.7998;font-family:sanserif;font-style:normal;font-weight:normal" x="104.3" y="142.9">
      <tspan x="104.3" y="142.9">Account Support</tspan>
    </text>
  </g>
  <g>
    <rect style="fill: #ffffff" x="700" y="120" width="192.3" height="38"/>
    <rect style="fill: none; fill-opacity:0; stroke-width: 2; stroke: #000000" x="700" y="120" width="192.3" height="38"/>
    <text style="fill: #000000;text-anchor:middle;font-size:12.7998;font-family:sanserif;font-style:normal;font-weight:normal" x="796.15" y="142.9">
      <tspan x="796.15" y="142.9">Image Generation Support</tspan>
    </text>
  </g>
  <g>
    <rect style="fill: #ffffff" x="1220" y="120" width="132.75" height="38"/>
    <rect style="fill: none; fill-opacity:0; stroke-width: 2; stroke: #000000" x="1220" y="120" width="132.75" height="38"/>
    <text style="fill: #000000;text-anchor:middle;font-size:12.7998;font-family:sanserif;font-style:normal;font-weight:normal" x="1286.38" y="142.9">
      <tspan x="1286.38" y="142.9">Theming Support</tspan>
    </text>
  </g>
  <g>
    <rect style="fill: #ffffff" x="1760" y="120" width="105.95" height="38"/>
    <rect style="fill: none; fill-opacity:0; stroke-width: 2; stroke: #000000" x="1760" y="120" width="105.95" height="38"/>
    <text style="fill: #000000;text-anchor:middle;font-size:12.7998;font-family:sanserif;font-style:normal;font-weight:normal" x="1812.98" y="142.9">
      <tspan x="1812.98" y="142.9">Help Support</tspan>
    </text>
  </g>
  <g>
    <rect style="fill: #ffffff" x="2300" y="120" width="132.85" height="38"/>
    <rect style="fill: none; fill-opacity:0; stroke-width: 2; stroke: #000000" x="2300" y="120" width="132.85" height="38"/>
    <text style="fill: #000000;text-anchor:middle;font-size:12.7998;font-family:sanserif;font-style:normal;font-weight:normal" x="2366.43" y="142.9">
      <tspan x="2366.43" y="142.9">Message Support</tspan>
    </text>
  </g>
  <g>
    <rect style="fill: #ffffff" x="2940" y="120" width="128.45" height="38"/>
    <rect style="fill: none; fill-opacity:0; stroke-width: 2; stroke: #000000" x="2940" y="120" width="128.45" height="38"/>
    <text style="fill: #000000;text-anchor:middle;font-size:12.7998;font-family:sanserif;font-style:normal;font-weight:normal" x="3004.23" y="142.9">
      <tspan x="3004.23" y="142.9">Tagging Support</tspan>
    </text>
  </g>
  <g>
    <rect style="fill: #ffffff" x="-780" y="120" width="173.1" height="38"/>
    <rect style="fill: none; fill-opacity:0; stroke-width: 2; stroke: #000000" x="-780" y="120" width="173.1" height="38"/>
    <text style="fill: #000000;text-anchor:middle;font-size:12.7998;font-family:sanserif;font-style:normal;font-weight:normal" x="-693.45" y="142.9">
      <tspan x="-693.45" y="142.9">Fulltext Search Support</tspan>
    </text>
  </g>
  <g>
    <rect style="fill: #ffffff" x="-1020" y="120" width="196.2" height="38"/>
    <rect style="fill: none; fill-opacity:0; stroke-width: 2; stroke: #000000" x="-1020" y="120" width="196.2" height="38"/>
    <text style="fill: #000000;text-anchor:middle;font-size:12.7998;font-family:sanserif;font-style:normal;font-weight:normal" x="-921.9" y="142.9">
      <tspan x="-921.9" y="142.9">Security Extension Support</tspan>
    </text>
  </g>
  <g>
    <rect style="fill: #ffffff" x="3300" y="120" width="139.95" height="38"/>
    <rect style="fill: none; fill-opacity:0; stroke-width: 2; stroke: #000000" x="3300" y="120" width="139.95" height="38"/>
    <text style="fill: #000000;text-anchor:middle;font-size:12.7998;font-family:sanserif;font-style:normal;font-weight:normal" x="3369.97" y="142.9">
      <tspan x="3369.97" y="142.9">Language Support</tspan>
    </text>
  </g>
  <g>
    <rect style="fill: #ffffff" x="-1100" y="320" width="149.25" height="38"/>
    <rect style="fill: none; fill-opacity:0; stroke-width: 2; stroke: #000000" x="-1100" y="320" width="149.25" height="38"/>
    <text style="fill: #000000;text-anchor:middle;font-size:12.7998;font-family:sanserif;font-style:normal;font-weight:normal" x="-1025.38" y="342.9">
      <tspan x="-1025.38" y="342.9">Moderation Support</tspan>
    </text>
  </g>
  <g>
    <rect style="fill: #ffffff" x="-620" y="220" width="169.55" height="38"/>
    <rect style="fill: none; fill-opacity:0; stroke-width: 2; stroke: #000000" x="-620" y="220" width="169.55" height="38"/>
    <text style="fill: #000000;text-anchor:middle;font-size:12.7998;font-family:sanserif;font-style:normal;font-weight:normal" x="-535.225" y="242.9">
      <tspan x="-535.225" y="242.9">Cronjob Administration</tspan>
    </text>
  </g>
  <g>
    <rect style="fill: #ffffff" x="-440" y="220" width="216.7" height="38"/>
    <rect style="fill: none; fill-opacity:0; stroke-width: 2; stroke: #000000" x="-440" y="220" width="216.7" height="38"/>
    <text style="fill: #000000;text-anchor:middle;font-size:12.7998;font-family:sanserif;font-style:normal;font-weight:normal" x="-331.65" y="242.9">
      <tspan x="-331.65" y="242.9">Cronjob Development Support</tspan>
    </text>
  </g>
  <g>
    <polyline style="fill: none; fill-opacity:0; stroke-width: 2; stroke: #000000" points="-921.9,120 -921.9,60 715.528,60 "/>
    <polyline style="fill: none; fill-opacity:0; stroke-width: 2; stroke: #000000" points="707.764,65 717.764,60 707.764,55 "/>
  </g>
  <g>
    <polyline style="fill: none; fill-opacity:0; stroke-width: 2; stroke: #000000" points="-693.45,120 -693.45,60 715.528,60 "/>
    <polyline style="fill: none; fill-opacity:0; stroke-width: 2; stroke: #000000" points="707.764,65 717.764,60 707.764,55 "/>
  </g>
  <g>
    <polyline style="fill: none; fill-opacity:0; stroke-width: 2; stroke: #000000" points="-436.8,120 -436.8,60 715.528,60 "/>
    <polyline style="fill: none; fill-opacity:0; stroke-width: 2; stroke: #000000" points="707.764,65 717.764,60 707.764,55 "/>
  </g>
  <g>
    <polyline style="fill: none; fill-opacity:0; stroke-width: 2; stroke: #000000" points="104.3,120 104.3,60 715.528,60 "/>
    <polyline style="fill: none; fill-opacity:0; stroke-width: 2; stroke: #000000" points="707.764,65 717.764,60 707.764,55 "/>
  </g>
  <g>
    <polyline style="fill: none; fill-opacity:0; stroke-width: 2; stroke: #000000" points="796.15,120 796.15,100 795.531,100 795.531,84.4721 "/>
    <polyline style="fill: none; fill-opacity:0; stroke-width: 2; stroke: #000000" points="800.531,92.2361 795.531,82.2361 790.531,92.2361 "/>
  </g>
  <g>
    <polyline style="fill: none; fill-opacity:0; stroke-width: 2; stroke: #000000" points="1286.38,120 1286.38,60 875.535,60 "/>
    <polyline style="fill: none; fill-opacity:0; stroke-width: 2; stroke: #000000" points="883.299,55 873.299,60 883.299,65 "/>
  </g>
  <g>
    <polyline style="fill: none; fill-opacity:0; stroke-width: 2; stroke: #000000" points="1812.98,120 1812.98,60 875.535,60 "/>
    <polyline style="fill: none; fill-opacity:0; stroke-width: 2; stroke: #000000" points="883.299,55 873.299,60 883.299,65 "/>
  </g>
  <g>
    <polyline style="fill: none; fill-opacity:0; stroke-width: 2; stroke: #000000" points="2366.43,120 2366.43,60 875.535,60 "/>
    <polyline style="fill: none; fill-opacity:0; stroke-width: 2; stroke: #000000" points="883.299,55 873.299,60 883.299,65 "/>
  </g>
  <g>
    <polyline style="fill: none; fill-opacity:0; stroke-width: 2; stroke: #000000" points="3004.23,120 3004.23,60 875.535,60 "/>
    <polyline style="fill: none; fill-opacity:0; stroke-width: 2; stroke: #000000" points="883.299,55 873.299,60 883.299,65 "/>
  </g>
  <g>
    <polyline style="fill: none; fill-opacity:0; stroke-width: 2; stroke: #000000" points="3369.97,120 3369.97,60 875.535,60 "/>
    <polyline style="fill: none; fill-opacity:0; stroke-width: 2; stroke: #000000" points="883.299,55 873.299,60 883.299,65 "/>
  </g>
  <g>
    <rect style="fill: #ffffff" x="-200" y="220" width="149.15" height="38"/>
    <rect style="fill: none; fill-opacity:0; stroke-width: 2; stroke: #000000" x="-200" y="220" width="149.15" height="38"/>
    <text style="fill: #000000;text-anchor:middle;font-size:12.7998;font-family:sanserif;font-style:normal;font-weight:normal" x="-125.425" y="242.9">
      <tspan x="-125.425" y="242.9">User Group Support</tspan>
    </text>
  </g>
  <g>
    <rect style="fill: #ffffff" x="-40" y="220" width="150.2" height="38"/>
    <rect style="fill: none; fill-opacity:0; stroke-width: 2; stroke: #000000" x="-40" y="220" width="150.2" height="38"/>
    <text style="fill: #000000;text-anchor:middle;font-size:12.7998;font-family:sanserif;font-style:normal;font-weight:normal" x="35.1" y="242.9">
      <tspan x="35.1" y="242.9">User Profile Support</tspan>
    </text>
  </g>
  <g>
    <rect style="fill: #ffffff" x="120" y="220" width="226.45" height="38"/>
    <rect style="fill: none; fill-opacity:0; stroke-width: 2; stroke: #000000" x="120" y="220" width="226.45" height="38"/>
    <text style="fill: #000000;text-anchor:middle;font-size:12.7998;font-family:sanserif;font-style:normal;font-weight:normal" x="233.225" y="242.9">
      <tspan x="233.225" y="242.9">Account Administration Support</tspan>
    </text>
  </g>
  <g>
    <rect style="fill: #ffffff" x="460" y="120" width="138.7" height="38"/>
    <rect style="fill: none; fill-opacity:0; stroke-width: 2; stroke: #000000" x="460" y="120" width="138.7" height="38"/>
    <text style="fill: #000000;text-anchor:middle;font-size:12.7998;font-family:sanserif;font-style:normal;font-weight:normal" x="529.35" y="142.9">
      <tspan x="529.35" y="142.9">Captcha Support</tspan>
    </text>
  </g>
  <g>
    <rect style="fill: #ffffff" x="740" y="220" width="96.45" height="38"/>
    <rect style="fill: none; fill-opacity:0; stroke-width: 2; stroke: #000000" x="740" y="220" width="96.45" height="38"/>
    <text style="fill: #000000;text-anchor:middle;font-size:12.7998;font-family:sanserif;font-style:normal;font-weight:normal" x="788.225" y="242.9">
      <tspan x="788.225" y="242.9">GD Support</tspan>
    </text>
  </g>
  <g>
    <rect style="fill: #ffffff" x="380" y="320" width="153.45" height="38"/>
    <rect style="fill: none; fill-opacity:0; stroke-width: 2; stroke: #000000" x="380" y="320" width="153.45" height="38"/>
    <text style="fill: #000000;text-anchor:middle;font-size:12.7998;font-family:sanserif;font-style:normal;font-weight:normal" x="456.725" y="342.9">
      <tspan x="456.725" y="342.9">GD Captcha Support</tspan>
    </text>
  </g>
  <g>
    <rect style="fill: #ffffff" x="540" y="220" width="142.8" height="38"/>
    <rect style="fill: none; fill-opacity:0; stroke-width: 2; stroke: #000000" x="540" y="220" width="142.8" height="38"/>
    <text style="fill: #000000;text-anchor:middle;font-size:12.7998;font-family:sanserif;font-style:normal;font-weight:normal" x="611.4" y="242.9">
      <tspan x="611.4" y="242.9">reCaptcha Support</tspan>
    </text>
  </g>
  <g>
    <rect style="fill: #ffffff" x="940" y="220" width="166.95" height="38"/>
    <rect style="fill: none; fill-opacity:0; stroke-width: 2; stroke: #000000" x="940" y="220" width="166.95" height="38"/>
    <text style="fill: #000000;text-anchor:middle;font-size:12.7998;font-family:sanserif;font-style:normal;font-weight:normal" x="1023.47" y="242.9">
      <tspan x="1023.47" y="242.9">Theme Server Support</tspan>
    </text>
  </g>
  <g>
    <rect style="fill: #ffffff" x="1120" y="220" width="218.7" height="38"/>
    <rect style="fill: none; fill-opacity:0; stroke-width: 2; stroke: #000000" x="1120" y="220" width="218.7" height="38"/>
    <text style="fill: #000000;text-anchor:middle;font-size:12.7998;font-family:sanserif;font-style:normal;font-weight:normal" x="1229.35" y="242.9">
      <tspan x="1229.35" y="242.9">Theme Administration Support</tspan>
    </text>
  </g>
  <g>
    <rect style="fill: #ffffff" x="1360" y="220" width="211.15" height="38"/>
    <rect style="fill: none; fill-opacity:0; stroke-width: 2; stroke: #000000" x="1360" y="220" width="211.15" height="38"/>
    <text style="fill: #000000;text-anchor:middle;font-size:12.7998;font-family:sanserif;font-style:normal;font-weight:normal" x="1465.58" y="242.9">
      <tspan x="1465.58" y="242.9">Theme Development Support</tspan>
    </text>
  </g>
  <g>
    <rect style="fill: #ffffff" x="1600" y="220" width="203.8" height="38"/>
    <rect style="fill: none; fill-opacity:0; stroke-width: 2; stroke: #000000" x="1600" y="220" width="203.8" height="38"/>
    <text style="fill: #000000;text-anchor:middle;font-size:12.7998;font-family:sanserif;font-style:normal;font-weight:normal" x="1701.9" y="242.9">
      <tspan x="1701.9" y="242.9">Help Administration Support</tspan>
    </text>
  </g>
  <g>
    <rect style="fill: #ffffff" x="1820" y="220" width="196.25" height="38"/>
    <rect style="fill: none; fill-opacity:0; stroke-width: 2; stroke: #000000" x="1820" y="220" width="196.25" height="38"/>
    <text style="fill: #000000;text-anchor:middle;font-size:12.7998;font-family:sanserif;font-style:normal;font-weight:normal" x="1918.13" y="242.9">
      <tspan x="1918.13" y="242.9">Help Development Support</tspan>
    </text>
  </g>
  <g>
    <rect style="fill: #ffffff" x="2060" y="220" width="130.75" height="38"/>
    <rect style="fill: none; fill-opacity:0; stroke-width: 2; stroke: #000000" x="2060" y="220" width="130.75" height="38"/>
    <text style="fill: #000000;text-anchor:middle;font-size:12.7998;font-family:sanserif;font-style:normal;font-weight:normal" x="2125.38" y="242.9">
      <tspan x="2125.38" y="242.9">WYSIWYG Editor</tspan>
    </text>
  </g>
  <g>
    <rect style="fill: #ffffff" x="2200" y="220" width="158.6" height="38"/>
    <rect style="fill: none; fill-opacity:0; stroke-width: 2; stroke: #000000" x="2200" y="220" width="158.6" height="38"/>
    <text style="fill: #000000;text-anchor:middle;font-size:12.7998;font-family:sanserif;font-style:normal;font-weight:normal" x="2279.3" y="242.9">
      <tspan x="2279.3" y="242.9">Attachment Support</tspan>
    </text>
  </g>
  <g>
    <rect style="fill: #ffffff" x="2380" y="220" width="131.75" height="38"/>
    <rect style="fill: none; fill-opacity:0; stroke-width: 2; stroke: #000000" x="2380" y="220" width="131.75" height="38"/>
    <text style="fill: #000000;text-anchor:middle;font-size:12.7998;font-family:sanserif;font-style:normal;font-weight:normal" x="2445.88" y="242.9">
      <tspan x="2445.88" y="242.9">BB-Code Support</tspan>
    </text>
  </g>
  <g>
    <rect style="fill: #ffffff" x="2540" y="220" width="119.9" height="38"/>
    <rect style="fill: none; fill-opacity:0; stroke-width: 2; stroke: #000000" x="2540" y="220" width="119.9" height="38"/>
    <text style="fill: #000000;text-anchor:middle;font-size:12.7998;font-family:sanserif;font-style:normal;font-weight:normal" x="2599.95" y="242.9">
      <tspan x="2599.95" y="242.9">Smiley Support</tspan>
    </text>
  </g>
  <g>
    <rect style="fill: #ffffff" x="2680" y="340" width="181.2" height="38"/>
    <rect style="fill: none; fill-opacity:0; stroke-width: 2; stroke: #000000" x="2680" y="340" width="181.2" height="38"/>
    <text style="fill: #000000;text-anchor:middle;font-size:12.7998;font-family:sanserif;font-style:normal;font-weight:normal" x="2770.6" y="362.9">
      <tspan x="2770.6" y="362.9">Message Search Support</tspan>
    </text>
  </g>
  <g>
    <rect style="fill: #ffffff" x="2900" y="340" width="148.85" height="38"/>
    <rect style="fill: none; fill-opacity:0; stroke-width: 2; stroke: #000000" x="2900" y="340" width="148.85" height="38"/>
    <text style="fill: #000000;text-anchor:middle;font-size:12.7998;font-family:sanserif;font-style:normal;font-weight:normal" x="2974.43" y="362.9">
      <tspan x="2974.43" y="362.9">Tag Search Support</tspan>
    </text>
  </g>
  <g>
    <rect style="fill: #ffffff" x="3120" y="220" width="237.8" height="38"/>
    <rect style="fill: none; fill-opacity:0; stroke-width: 2; stroke: #000000" x="3120" y="220" width="237.8" height="38"/>
    <text style="fill: #000000;text-anchor:middle;font-size:12.7998;font-family:sanserif;font-style:normal;font-weight:normal" x="3238.9" y="242.9">
      <tspan x="3238.9" y="242.9">Language Administration Support</tspan>
    </text>
  </g>
  <g>
    <rect style="fill: #ffffff" x="3380" y="220" width="230.25" height="38"/>
    <rect style="fill: none; fill-opacity:0; stroke-width: 2; stroke: #000000" x="3380" y="220" width="230.25" height="38"/>
    <text style="fill: #000000;text-anchor:middle;font-size:12.7998;font-family:sanserif;font-style:normal;font-weight:normal" x="3495.13" y="242.9">
      <tspan x="3495.13" y="242.9">Language Development Support</tspan>
    </text>
  </g>
  <g>
    <rect style="fill: #ffffff" x="680" y="320" width="215.65" height="38"/>
    <rect style="fill: none; fill-opacity:0; stroke-width: 2; stroke: #000000" x="680" y="320" width="215.65" height="38"/>
    <text style="fill: #000000;text-anchor:middle;font-size:12.7998;font-family:sanserif;font-style:normal;font-weight:normal" x="787.825" y="342.9">
      <tspan x="787.825" y="342.9">Package Visualisation Support</tspan>
    </text>
  </g>
  <g>
    <polyline style="fill: none; fill-opacity:0; stroke-width: 2; stroke: #000000" points="-1025.38,320 -1025.38,280 -921.9,280 -921.9,162.472 "/>
    <polyline style="fill: none; fill-opacity:0; stroke-width: 2; stroke: #000000" points="-916.9,170.236 -921.9,160.236 -926.9,170.236 "/>
  </g>
  <g>
    <polyline style="fill: none; fill-opacity:0; stroke-width: 2; stroke: #000000" points="-535.225,220 -535.225,189 -436.8,189 -436.8,162.472 "/>
    <polyline style="fill: none; fill-opacity:0; stroke-width: 2; stroke: #000000" points="-431.8,170.236 -436.8,160.236 -441.8,170.236 "/>
  </g>
  <g>
    <polyline style="fill: none; fill-opacity:0; stroke-width: 2; stroke: #000000" points="-331.65,220 -331.65,189 -436.8,189 -436.8,162.472 "/>
    <polyline style="fill: none; fill-opacity:0; stroke-width: 2; stroke: #000000" points="-431.8,170.236 -436.8,160.236 -441.8,170.236 "/>
  </g>
  <g>
    <polyline style="fill: none; fill-opacity:0; stroke-width: 2; stroke: #000000" points="-125.425,220 -125.425,189 104.3,189 104.3,162.472 "/>
    <polyline style="fill: none; fill-opacity:0; stroke-width: 2; stroke: #000000" points="109.3,170.236 104.3,160.236 99.3,170.236 "/>
  </g>
  <g>
    <polyline style="fill: none; fill-opacity:0; stroke-width: 2; stroke: #000000" points="35.1,220 35.1,189 104.3,189 104.3,162.472 "/>
    <polyline style="fill: none; fill-opacity:0; stroke-width: 2; stroke: #000000" points="109.3,170.236 104.3,160.236 99.3,170.236 "/>
  </g>
  <g>
    <polyline style="fill: none; fill-opacity:0; stroke-width: 2; stroke: #000000" points="233.225,220 233.225,189 104.3,189 104.3,162.472 "/>
    <polyline style="fill: none; fill-opacity:0; stroke-width: 2; stroke: #000000" points="109.3,170.236 104.3,160.236 99.3,170.236 "/>
  </g>
  <g>
    <polyline style="fill: none; fill-opacity:0; stroke-width: 2; stroke: #000000" points="611.4,220 611.4,189 529.35,189 529.35,162.472 "/>
    <polyline style="fill: none; fill-opacity:0; stroke-width: 2; stroke: #000000" points="534.35,170.236 529.35,160.236 524.35,170.236 "/>
  </g>
  <g>
    <polyline style="fill: none; fill-opacity:0; stroke-width: 2; stroke: #000000" points="529.35,120 529.35,60 715.528,60 "/>
    <polyline style="fill: none; fill-opacity:0; stroke-width: 2; stroke: #000000" points="707.764,65 717.764,60 707.764,55 "/>
  </g>
  <g>
    <polyline style="fill: none; fill-opacity:0; stroke-width: 2; stroke: #000000" points="788.225,220 788.225,189 796.15,189 796.15,162.472 "/>
    <polyline style="fill: none; fill-opacity:0; stroke-width: 2; stroke: #000000" points="801.15,170.236 796.15,160.236 791.15,170.236 "/>
  </g>
  <g>
    <polyline style="fill: none; fill-opacity:0; stroke-width: 2; stroke: #000000" points="1023.47,220 1023.47,189 1286.38,189 1286.38,162.472 "/>
    <polyline style="fill: none; fill-opacity:0; stroke-width: 2; stroke: #000000" points="1291.38,170.236 1286.38,160.236 1281.38,170.236 "/>
  </g>
  <g>
    <polyline style="fill: none; fill-opacity:0; stroke-width: 2; stroke: #000000" points="1229.35,220 1229.35,189 1286.38,189 1286.38,162.472 "/>
    <polyline style="fill: none; fill-opacity:0; stroke-width: 2; stroke: #000000" points="1291.38,170.236 1286.38,160.236 1281.38,170.236 "/>
  </g>
  <g>
    <polyline style="fill: none; fill-opacity:0; stroke-width: 2; stroke: #000000" points="1465.58,220 1465.58,189 1286.38,189 1286.38,162.472 "/>
    <polyline style="fill: none; fill-opacity:0; stroke-width: 2; stroke: #000000" points="1291.38,170.236 1286.38,160.236 1281.38,170.236 "/>
  </g>
  <g>
    <polyline style="fill: none; fill-opacity:0; stroke-width: 2; stroke: #000000" points="1701.9,220 1701.9,189 1812.98,189 1812.98,162.472 "/>
    <polyline style="fill: none; fill-opacity:0; stroke-width: 2; stroke: #000000" points="1817.98,170.236 1812.98,160.236 1807.98,170.236 "/>
  </g>
  <g>
    <polyline style="fill: none; fill-opacity:0; stroke-width: 2; stroke: #000000" points="1918.13,220 1918.13,189 1812.98,189 1812.98,162.472 "/>
    <polyline style="fill: none; fill-opacity:0; stroke-width: 2; stroke: #000000" points="1817.98,170.236 1812.98,160.236 1807.98,170.236 "/>
  </g>
  <g>
    <polyline style="fill: none; fill-opacity:0; stroke-width: 2; stroke: #000000" points="2125.38,220 2125.38,189 2366.43,189 2366.43,162.472 "/>
    <polyline style="fill: none; fill-opacity:0; stroke-width: 2; stroke: #000000" points="2371.43,170.236 2366.43,160.236 2361.43,170.236 "/>
  </g>
  <g>
    <polyline style="fill: none; fill-opacity:0; stroke-width: 2; stroke: #000000" points="2279.3,220 2279.3,189 2366.43,189 2366.43,162.472 "/>
    <polyline style="fill: none; fill-opacity:0; stroke-width: 2; stroke: #000000" points="2371.43,170.236 2366.43,160.236 2361.43,170.236 "/>
  </g>
  <g>
    <polyline style="fill: none; fill-opacity:0; stroke-width: 2; stroke: #000000" points="2445.88,220 2445.88,189 2366.43,189 2366.43,162.472 "/>
    <polyline style="fill: none; fill-opacity:0; stroke-width: 2; stroke: #000000" points="2371.43,170.236 2366.43,160.236 2361.43,170.236 "/>
  </g>
  <g>
    <polyline style="fill: none; fill-opacity:0; stroke-width: 2; stroke: #000000" points="2599.95,220 2599.95,189 2366.43,189 2366.43,162.472 "/>
    <polyline style="fill: none; fill-opacity:0; stroke-width: 2; stroke: #000000" points="2371.43,170.236 2366.43,160.236 2361.43,170.236 "/>
  </g>
  <g>
    <polyline style="fill: none; fill-opacity:0; stroke-width: 2; stroke: #000000" points="3238.9,220 3238.9,189 3369.97,189 3369.97,162.472 "/>
    <polyline style="fill: none; fill-opacity:0; stroke-width: 2; stroke: #000000" points="3374.97,170.236 3369.97,160.236 3364.97,170.236 "/>
  </g>
  <g>
    <polyline style="fill: none; fill-opacity:0; stroke-width: 2; stroke: #000000" points="3495.13,220 3495.13,189 3369.97,189 3369.97,162.472 "/>
    <polyline style="fill: none; fill-opacity:0; stroke-width: 2; stroke: #000000" points="3374.97,170.236 3369.97,160.236 3364.97,170.236 "/>
  </g>
  <g>
    <polyline style="fill: none; fill-opacity:0; stroke-width: 2; stroke: #000000" points="2770.6,340 2770.6,139 2437.32,139 "/>
    <polyline style="fill: none; fill-opacity:0; stroke-width: 2; stroke: #000000" points="2445.09,134 2435.09,139 2445.09,144 "/>
  </g>
  <g>
    <polyline style="fill: none; fill-opacity:0; stroke-width: 2; stroke: #000000" points="2770.6,378 2770.6,440 -693.45,440 -693.45,162.472 "/>
    <polyline style="fill: none; fill-opacity:0; stroke-width: 2; stroke: #000000" points="-688.45,170.236 -693.45,160.236 -698.45,170.236 "/>
  </g>
  <g>
    <polyline style="fill: none; fill-opacity:0; stroke-width: 2; stroke: #000000" points="2974.43,378 2974.43,440 -693.45,440 -693.45,162.472 "/>
    <polyline style="fill: none; fill-opacity:0; stroke-width: 2; stroke: #000000" points="-688.45,170.236 -693.45,160.236 -698.45,170.236 "/>
  </g>
  <g>
    <polyline style="fill: none; fill-opacity:0; stroke-width: 2; stroke: #000000" points="2974.43,338.99 2974.43,248.495 3004.23,248.495 3004.23,162.472 "/>
    <polyline style="fill: none; fill-opacity:0; stroke-width: 2; stroke: #000000" points="3009.23,170.236 3004.23,160.236 2999.23,170.236 "/>
  </g>
  <g>
    <polyline style="fill: none; fill-opacity:0; stroke-width: 2; stroke: #000000" points="456.725,320 456.725,239 529.35,239 529.35,162.472 "/>
    <polyline style="fill: none; fill-opacity:0; stroke-width: 2; stroke: #000000" points="534.35,170.236 529.35,160.236 524.35,170.236 "/>
  </g>
  <g>
    <polyline style="fill: none; fill-opacity:0; stroke-width: 2; stroke: #000000" points="533.45,339 640,339 640,300 788.225,300 788.225,262.472 "/>
    <polyline style="fill: none; fill-opacity:0; stroke-width: 2; stroke: #000000" points="793.225,270.236 788.225,260.236 783.225,270.236 "/>
  </g>
  <g>
    <polyline style="fill: none; fill-opacity:0; stroke-width: 2; stroke: #000000" points="787.825,320 787.825,289 788.225,289 788.225,262.472 "/>
    <polyline style="fill: none; fill-opacity:0; stroke-width: 2; stroke: #000000" points="793.225,270.236 788.225,260.236 783.225,270.236 "/>
  </g>
</svg>
