<?xml version="1.0" encoding="UTF-8" standalone="no"?>
<!DOCTYPE svg PUBLIC "-//W3C//DTD SVG 1.0//EN" "http://www.w3.org/TR/2001/PR-SVG-20010719/DTD/svg10.dtd">
<svg width="56cm" height="44cm" viewBox="19 19 1102 880" xmlns="http://www.w3.org/2000/svg" xmlns:xlink="http://www.w3.org/1999/xlink">
  <g>
    <rect style="fill: #ffffff" x="20" y="20" width="110.95" height="38"/>
    <rect style="fill: none; fill-opacity:0; stroke-width: 2; stroke: #000000" x="20" y="20" width="110.95" height="38"/>
    <text style="fill: #000000;text-anchor:middle;font-size:12.7998;font-family:sanserif;font-style:normal;font-weight:normal" x="75.475" y="42.9">
      <tspan x="75.475" y="42.9">Load Package</tspan>
    </text>
  </g>
  <g>
    <polygon style="fill: #ffffff" points="300,140 400,220 300,300 200,220 "/>
    <polygon style="fill: none; fill-opacity:0; stroke-width: 2; stroke: #000000" points="300,140 400,220 300,300 200,220 "/>
    <text style="fill: #000000;text-anchor:middle;font-size:12.7998;font-family:sanserif;font-style:normal;font-weight:normal" x="300" y="223.9">
      <tspan x="300" y="223.9">All Blocks existant?</tspan>
    </text>
  </g>
  <g>
    <polyline style="fill: none; fill-opacity:0; stroke-width: 2; stroke: #000000" points="130.95,39 300,39 300,135.528 "/>
    <polyline style="fill: none; fill-opacity:0; stroke-width: 2; stroke: #000000" points="295,127.764 300,137.764 305,127.764 "/>
  </g>
  <g>
    <rect style="fill: #ffffff" x="20" y="580" width="120" height="38"/>
    <rect style="fill: none; fill-opacity:0; stroke-width: 2; stroke: #000000" x="20" y="580" width="120" height="38"/>
    <text style="fill: #000000;text-anchor:middle;font-size:12.7998;font-family:sanserif;font-style:normal;font-weight:normal" x="80" y="602.9">
      <tspan x="80" y="602.9">Display Error</tspan>
    </text>
  </g>
  <g>
    <polyline style="fill: none; fill-opacity:0; stroke-width: 2; stroke: #000000" points="200,220 200,220 80,220 80,575.528 "/>
    <polyline style="fill: none; fill-opacity:0; stroke-width: 2; stroke: #000000" points="75,567.764 80,577.764 85,567.764 "/>
  </g>
  <text style="fill: #000000;text-anchor:start;font-size:12.7998;font-family:sanserif;font-style:normal;font-weight:normal" x="180" y="200">
    <tspan x="180" y="200">No</tspan>
  </text>
  <g>
    <rect style="fill: #ffffff" x="20" y="860" width="120" height="38"/>
    <rect style="fill: none; fill-opacity:0; stroke-width: 2; stroke: #000000" x="20" y="860" width="120" height="38"/>
    <text style="fill: #000000;text-anchor:middle;font-size:12.7998;font-family:sanserif;font-style:normal;font-weight:normal" x="80" y="882.9">
      <tspan x="80" y="882.9">End</tspan>
    </text>
  </g>
  <g>
    <line style="fill: none; fill-opacity:0; stroke-width: 2; stroke: #000000" x1="80" y1="618" x2="80" y2="855.528"/>
    <polyline style="fill: none; fill-opacity:0; stroke-width: 2; stroke: #000000" points="75,847.764 80,857.764 85,847.764 "/>
  </g>
  <g>
    <rect style="fill: #ffffff" x="460" y="200" width="170.95" height="38"/>
    <rect style="fill: none; fill-opacity:0; stroke-width: 2; stroke: #000000" x="460" y="200" width="170.95" height="38"/>
    <text style="fill: #000000;text-anchor:middle;font-size:12.7998;font-family:sanserif;font-style:normal;font-weight:normal" x="545.475" y="222.9">
      <tspan x="545.475" y="222.9">Read information block</tspan>
    </text>
  </g>
  <g>
    <line style="fill: none; fill-opacity:0; stroke-width: 2; stroke: #000000" x1="400.391" y1="219.373" x2="455.528" y2="219.028"/>
    <polyline style="fill: none; fill-opacity:0; stroke-width: 2; stroke: #000000" points="447.795,224.076 457.764,219.014 447.733,214.077 "/>
  </g>
  <g>
    <polygon style="fill: #ffffff" points="544.213,300 668.426,380 544.213,460 420,380 "/>
    <polygon style="fill: none; fill-opacity:0; stroke-width: 2; stroke: #000000" points="544.213,300 668.426,380 544.213,460 420,380 "/>
    <text style="fill: #000000;text-anchor:middle;font-size:12.7998;font-family:sanserif;font-style:normal;font-weight:normal" x="544.213" y="375.9">
      <tspan x="544.213" y="375.9">Required information</tspan>
      <tspan x="544.213" y="391.9">exists?</tspan>
    </text>
  </g>
  <g>
    <line style="fill: none; fill-opacity:0; stroke-width: 2; stroke: #000000" x1="545.475" y1="238" x2="544.304" y2="295.529"/>
    <polyline style="fill: none; fill-opacity:0; stroke-width: 2; stroke: #000000" points="539.463,287.665 544.259,297.764 549.461,287.868 "/>
  </g>
  <g>
    <polyline style="fill: none; fill-opacity:0; stroke-width: 2; stroke: #000000" points="420,380 420,378.893 80,378.893 80,575.528 "/>
    <polyline style="fill: none; fill-opacity:0; stroke-width: 2; stroke: #000000" points="75,567.764 80,577.764 85,567.764 "/>
  </g>
  <text style="fill: #000000;text-anchor:start;font-size:12.7998;font-family:sanserif;font-style:normal;font-weight:normal" x="460" y="238">
    <tspan x="460" y="238"></tspan>
  </text>
  <text style="fill: #000000;text-anchor:start;font-size:12.7998;font-family:sanserif;font-style:normal;font-weight:normal" x="400" y="200">
    <tspan x="400" y="200">Yes</tspan>
  </text>
  <text style="fill: #000000;text-anchor:start;font-size:12.7998;font-family:sanserif;font-style:normal;font-weight:normal" x="400" y="360">
    <tspan x="400" y="360">No</tspan>
  </text>
  <g>
    <rect style="fill: #ffffff" x="740" y="360" width="76.25" height="38"/>
    <rect style="fill: none; fill-opacity:0; stroke-width: 2; stroke: #000000" x="740" y="360" width="76.25" height="38"/>
    <text style="fill: #000000;text-anchor:middle;font-size:12.7998;font-family:sanserif;font-style:normal;font-weight:normal" x="778.125" y="382.9">
      <tspan x="778.125" y="382.9">Start PiP</tspan>
    </text>
  </g>
  <g>
    <line style="fill: none; fill-opacity:0; stroke-width: 2; stroke: #000000" x1="668.426" y1="380" x2="735.528" y2="379.062"/>
    <polyline style="fill: none; fill-opacity:0; stroke-width: 2; stroke: #000000" points="727.835,384.17 737.764,379.031 727.695,374.171 "/>
  </g>
  <text style="fill: #000000;text-anchor:start;font-size:12.7998;font-family:sanserif;font-style:normal;font-weight:normal" x="660" y="360">
    <tspan x="660" y="360">Yes</tspan>
  </text>
  <g>
    <polygon style="fill: #ffffff" points="780,500 860,540 780,580 700,540 "/>
    <polygon style="fill: none; fill-opacity:0; stroke-width: 2; stroke: #000000" points="780,500 860,540 780,580 700,540 "/>
    <text style="fill: #000000;text-anchor:middle;font-size:12.7998;font-family:sanserif;font-style:normal;font-weight:normal" x="780" y="543.9">
      <tspan x="780" y="543.9">Error?</tspan>
    </text>
  </g>
  <g>
    <line style="fill: none; fill-opacity:0; stroke-width: 2; stroke: #000000" x1="778.125" y1="398" x2="779.918" y2="495.529"/>
    <polyline style="fill: none; fill-opacity:0; stroke-width: 2; stroke: #000000" points="774.776,487.858 779.959,497.764 784.774,487.674 "/>
  </g>
  <g>
    <polyline style="fill: none; fill-opacity:0; stroke-width: 2; stroke: #000000" points="700,540 700,540 80,540 80,575.528 "/>
    <polyline style="fill: none; fill-opacity:0; stroke-width: 2; stroke: #000000" points="75,567.764 80,577.764 85,567.764 "/>
  </g>
  <text style="fill: #000000;text-anchor:start;font-size:12.7998;font-family:sanserif;font-style:normal;font-weight:normal" x="680" y="520">
    <tspan x="680" y="520">Yes</tspan>
  </text>
  <g>
    <polygon style="fill: #ffffff" points="958.438,640 1036.88,680 958.438,720 880,680 "/>
    <polygon style="fill: none; fill-opacity:0; stroke-width: 2; stroke: #000000" points="958.438,640 1036.88,680 958.438,720 880,680 "/>
    <text style="fill: #000000;text-anchor:middle;font-size:12.7998;font-family:sanserif;font-style:normal;font-weight:normal" x="958.438" y="683.9">
      <tspan x="958.438" y="683.9">Last PiP?</tspan>
    </text>
  </g>
  <g>
    <polyline style="fill: none; fill-opacity:0; stroke-width: 2; stroke: #000000" points="860,540 860,540 958.438,540 958.438,635.528 "/>
    <polyline style="fill: none; fill-opacity:0; stroke-width: 2; stroke: #000000" points="953.438,627.764 958.438,637.764 963.438,627.764 "/>
  </g>
  <text style="fill: #000000;text-anchor:start;font-size:12.7998;font-family:sanserif;font-style:normal;font-weight:normal" x="860" y="520">
    <tspan x="860" y="520">No</tspan>
  </text>
  <g>
    <polyline style="fill: none; fill-opacity:0; stroke-width: 2; stroke: #000000" points="880,680 880,680 80,680 80,855.528 "/>
    <polyline style="fill: none; fill-opacity:0; stroke-width: 2; stroke: #000000" points="75,847.764 80,857.764 85,847.764 "/>
  </g>
  <text style="fill: #000000;text-anchor:start;font-size:12.7998;font-family:sanserif;font-style:normal;font-weight:normal" x="860" y="660">
    <tspan x="860" y="660">Yes</tspan>
  </text>
  <g>
    <polyline style="fill: none; fill-opacity:0; stroke-width: 2; stroke: #000000" points="1036.88,680 1036.88,680 1120,680 1120,379 820.722,379 "/>
    <polyline style="fill: none; fill-opacity:0; stroke-width: 2; stroke: #000000" points="828.486,374 818.486,379 828.486,384 "/>
  </g>
  <text style="fill: #000000;text-anchor:start;font-size:12.7998;font-family:sanserif;font-style:normal;font-weight:normal" x="1040" y="660">
    <tspan x="1040" y="660">No</tspan>
  </text>
</svg>
