<?xml version="1.0" encoding="UTF-8" standalone="no"?>
<!DOCTYPE svg PUBLIC "-//W3C//DTD SVG 1.0//EN" "http://www.w3.org/TR/2001/PR-SVG-20010719/DTD/svg10.dtd">
<svg width="40cm" height="22cm" viewBox="19 19 800 440" xmlns="http://www.w3.org/2000/svg" xmlns:xlink="http://www.w3.org/1999/xlink">
  <g>
    <rect style="fill: #ffffff" x="20" y="20" width="135.75" height="38"/>
    <rect style="fill: none; fill-opacity:0; stroke-width: 2; stroke: #000000" x="20" y="20" width="135.75" height="38"/>
    <text style="fill: #000000;text-anchor:middle;font-size:12.7998;font-family:sanserif;font-style:normal;font-weight:normal" x="87.875" y="42.9">
      <tspan x="87.875" y="42.9">Configure session</tspan>
    </text>
  </g>
  <g>
    <rect style="fill: #ffffff" x="200" y="20" width="160" height="38"/>
    <rect style="fill: none; fill-opacity:0; stroke-width: 2; stroke: #000000" x="200" y="20" width="160" height="38"/>
    <text style="fill: #000000;text-anchor:middle;font-size:12.7998;font-family:sanserif;font-style:normal;font-weight:normal" x="280" y="42.9">
      <tspan x="280" y="42.9">Load session</tspan>
    </text>
  </g>
  <g>
    <line style="fill: none; fill-opacity:0; stroke-width: 2; stroke: #000000" x1="155.75" y1="39" x2="195.528" y2="39"/>
    <polyline style="fill: none; fill-opacity:0; stroke-width: 2; stroke: #000000" points="187.764,44 197.764,39 187.764,34 "/>
  </g>
  <g>
    <polygon style="fill: #ffffff" points="280,120 340,160 280,200 220,160 "/>
    <polygon style="fill: none; fill-opacity:0; stroke-width: 2; stroke: #000000" points="280,120 340,160 280,200 220,160 "/>
    <text style="fill: #000000;text-anchor:middle;font-size:12.7998;font-family:sanserif;font-style:normal;font-weight:normal" x="280" y="163.9">
      <tspan x="280" y="163.9">Error?</tspan>
    </text>
  </g>
  <g>
    <line style="fill: none; fill-opacity:0; stroke-width: 2; stroke: #000000" x1="280" y1="58" x2="280" y2="115.528"/>
    <polyline style="fill: none; fill-opacity:0; stroke-width: 2; stroke: #000000" points="275,107.764 280,117.764 285,107.764 "/>
  </g>
  <g>
    <rect style="fill: #ffffff" x="100" y="220" width="164.8" height="38"/>
    <rect style="fill: none; fill-opacity:0; stroke-width: 2; stroke: #000000" x="100" y="220" width="164.8" height="38"/>
    <text style="fill: #000000;text-anchor:middle;font-size:12.7998;font-family:sanserif;font-style:normal;font-weight:normal" x="182.4" y="242.9">
      <tspan x="182.4" y="242.9">Clear session tracking</tspan>
    </text>
  </g>
  <g>
    <polyline style="fill: none; fill-opacity:0; stroke-width: 2; stroke: #000000" points="220,160 220,160 182.4,160 182.4,215.528 "/>
    <polyline style="fill: none; fill-opacity:0; stroke-width: 2; stroke: #000000" points="177.4,207.764 182.4,217.764 187.4,207.764 "/>
  </g>
  <text style="fill: #000000;text-anchor:start;font-size:12.7998;font-family:sanserif;font-style:normal;font-weight:normal" x="200" y="140">
    <tspan x="200" y="140">Yes</tspan>
  </text>
  <g>
    <polygon style="fill: #ffffff" points="506.667,300 653.333,360 506.667,420 360,360 "/>
    <polygon style="fill: none; fill-opacity:0; stroke-width: 2; stroke: #000000" points="506.667,300 653.333,360 506.667,420 360,360 "/>
    <text style="fill: #000000;text-anchor:middle;font-size:12.7998;font-family:sanserif;font-style:normal;font-weight:normal" x="506.667" y="355.9">
      <tspan x="506.667" y="355.9">Application and ikarus</tspan>
      <tspan x="506.667" y="371.9">session are existant?</tspan>
    </text>
  </g>
  <g>
    <polyline style="fill: none; fill-opacity:0; stroke-width: 2; stroke: #000000" points="340,160 340,160 506.667,160 506.667,295.528 "/>
    <polyline style="fill: none; fill-opacity:0; stroke-width: 2; stroke: #000000" points="501.667,287.764 506.667,297.764 511.667,287.764 "/>
  </g>
  <g>
    <polyline style="fill: none; fill-opacity:0; stroke-width: 2; stroke: #000000" points="100,239 80,239 80,109 180,109 180,39 195.528,39 "/>
    <polyline style="fill: none; fill-opacity:0; stroke-width: 2; stroke: #000000" points="187.764,44 197.764,39 187.764,34 "/>
  </g>
  <g>
    <rect style="fill: #ffffff" x="20" y="420" width="46.35" height="38"/>
    <rect style="fill: none; fill-opacity:0; stroke-width: 2; stroke: #000000" x="20" y="420" width="46.35" height="38"/>
    <text style="fill: #000000;text-anchor:middle;font-size:12.7998;font-family:sanserif;font-style:normal;font-weight:normal" x="43.175" y="442.9">
      <tspan x="43.175" y="442.9">End</tspan>
    </text>
  </g>
  <g>
    <polyline style="fill: none; fill-opacity:0; stroke-width: 2; stroke: #000000" points="360,360 360,360 43.175,360 43.175,415.528 "/>
    <polyline style="fill: none; fill-opacity:0; stroke-width: 2; stroke: #000000" points="38.175,407.764 43.175,417.764 48.175,407.764 "/>
  </g>
  <text style="fill: #000000;text-anchor:start;font-size:12.7998;font-family:sanserif;font-style:normal;font-weight:normal" x="340" y="340">
    <tspan x="340" y="340">Yes</tspan>
  </text>
  <g>
    <rect style="fill: #ffffff" x="680" y="420" width="117.75" height="38"/>
    <rect style="fill: none; fill-opacity:0; stroke-width: 2; stroke: #000000" x="680" y="420" width="117.75" height="38"/>
    <text style="fill: #000000;text-anchor:middle;font-size:12.7998;font-family:sanserif;font-style:normal;font-weight:normal" x="738.875" y="442.9">
      <tspan x="738.875" y="442.9">Create Session</tspan>
    </text>
  </g>
  <g>
    <polyline style="fill: none; fill-opacity:0; stroke-width: 2; stroke: #000000" points="653.333,360 653.333,360 738.875,360 738.875,415.528 "/>
    <polyline style="fill: none; fill-opacity:0; stroke-width: 2; stroke: #000000" points="733.875,407.764 738.875,417.764 743.875,407.764 "/>
  </g>
  <g>
    <polyline style="fill: none; fill-opacity:0; stroke-width: 2; stroke: #000000" points="797.75,429.5 817.75,429.5 817.75,160 506.667,160 506.667,295.528 "/>
    <polyline style="fill: none; fill-opacity:0; stroke-width: 2; stroke: #000000" points="501.667,287.764 506.667,297.764 511.667,287.764 "/>
  </g>
  <text style="fill: #000000;text-anchor:start;font-size:12.7998;font-family:sanserif;font-style:normal;font-weight:normal" x="340" y="140">
    <tspan x="340" y="140">No</tspan>
  </text>
  <text style="fill: #000000;text-anchor:start;font-size:12.7998;font-family:sanserif;font-style:normal;font-weight:normal" x="660" y="340">
    <tspan x="660" y="340">No</tspan>
  </text>
</svg>
